<?xml version="1.0" encoding="UTF-8"?>
<svg width="45px" height="48px" viewBox="0 0 45 48" version="1.1" xmlns="http://www.w3.org/2000/svg" xmlns:xlink="http://www.w3.org/1999/xlink">
    <!-- Generator: Sketch 42 (36781) - http://www.bohemiancoding.com/sketch -->
    <title>icon</title>
    <desc>Created with Sketch.</desc>
    <defs></defs>
    <g id="Page-1" stroke="none" stroke-width="1" fill="none" fill-rule="evenodd">
        <g id="icon" transform="translate(0.000000, -1.000000)" fill-rule="nonzero" fill="#000000">
            <g id="Group">
                <g id="Shape">
                    <path d="M23.149,10.989 C35.618,10.989 44.725,8.752 44.725,5.991 C44.725,3.23 35.618,0.992 23.149,0.992 C10.68,0.992 1.573,3.23 1.573,5.991 C1.573,8.752 10.68,10.989 23.149,10.989 Z"></path>
                    <path d="M39.028,30.923 C41.327,30.923 43.318,31.832 44.857,33.304 C44.939,33.233 45,33.163 45,33.095 L45,22.217 C41,24.384 31.898,25.505 23,25.505 C14.102,25.505 5,24.384 1,22.217 L1,33.095 C3,34.78 10.804,36.843 23.091,36.843 C25.937,36.843 28.583,36.728 30.962,36.537 C32.169,33.263 35.335,30.923 39.028,30.923 Z"></path>
                    <path d="M30.456,39.495 C30.456,39.112 30.491,38.737 30.54,38.368 C28.142,38.542 25.586,38.634 23.091,38.634 C14.193,38.634 5,37.513 1,35.345 L1,43.91 C1,43.976 0.979,44.042 0.979,44.11 C0.979,44.177 1,44.243 1,44.31 L1,44 L1.118,44 C2.458,47 11.282,48.834 23.15,48.834 C28.511,48.834 33.326,48.473 37.089,47.76 C33.29,46.88 30.456,43.562 30.456,39.495 Z"></path>
                    <path d="M45,19.966 L45,9.058 C41,11.434 32.17,12.665 23,12.665 C13.83,12.665 5,11.434 1,9.058 L1,19.966 C3,21.651 10.713,23.713 23,23.713 C35.289,23.713 44,21.65 45,19.966 Z"></path>
                </g>
                <g transform="translate(34.000000, 33.000000)" id="Shape">
                    <path d="M10.071,3.64 C10.303,3.24 10.155,2.719 9.739,2.48 L6.132,0.396 C5.716,0.157 5.193,0.289 4.96,0.689 L4.321,1.794 L9.432,4.745 L10.071,3.64 Z"></path>
                    <path d="M1.368,12.812 C1.427,12.79 2.407,12.398 3.423,11.992 L1.052,10.623 C1.208,11.705 1.358,12.749 1.368,12.812 Z"></path>
                    <path d="M2.567,8.237 L5.536,3.096 L4.1,2.268 C4.051,2.355 1.246,7.213 1.133,7.409 C1.763,7.276 2.37,7.626 2.567,8.237 Z"></path>
                    <path d="M4.337,9.258 L7.304,4.118 L5.87,3.29 C5.583,3.788 3.009,8.244 2.901,8.43 C3.208,8.365 3.516,8.409 3.782,8.564 C4.048,8.716 4.239,8.96 4.337,9.258 Z"></path>
                    <path d="M4.288,9.839 L4.218,9.864 L4.2,9.806 C4.098,9.468 3.874,9.187 3.565,9.007 C3.254,8.828 2.899,8.775 2.555,8.857 L2.504,8.874 L2.483,8.798 C2.276,8.133 1.573,7.722 0.893,7.861 C0.926,8.09 1.077,9.123 1.225,10.155 L3.741,11.608 C4.71,11.22 5.679,10.834 5.891,10.748 C5.787,10.432 5.571,10.166 5.274,9.994 C4.97,9.818 4.62,9.764 4.288,9.839 Z"></path>
                    <path d="M4.731,9.485 C5.036,9.418 5.344,9.465 5.608,9.618 C5.874,9.77 6.069,10.015 6.165,10.313 L9.132,5.173 L7.698,4.345 L4.731,9.485 Z"></path>
                </g>
            </g>
        </g>
    </g>
</svg>